<svg xmlns="http://www.w3.org/2000/svg" viewBox="0 0 78.3 85.9">
  <path fill="#fff" d="M38.5 83.8c1.4 0 2.9 0 4.3-.1 10.6-.7 19.6-4.4 26.8-11.1 4.8-4.4 6.8-8.9 6.7-10.2 0-1.1-4.2-4.6-5.9-4.7-1 0-1.7.8-2.6 1.8-.3.4-.7.8-1.1 1.1C60 66.9 52.2 70.5 44.1 71c-.7 0-1.4.1-2 0-8.4-.3-14.7-5.6-17.5-14.5l-.2-.5h.6c31.3-2.4 41.8-21.6 41.1-33.1C65.2 8 52.7 2.4 42.2 2c-1.3 0-2.6 0-3.9.1-10.7.7-20.3 5.9-27 14.7-6.7 8.8-9.9 20.6-9.2 33.1C3.1 65 13.2 83 38.5 83.8zM23.1 44.1c.7-12.3 4.2-19.5 7.1-23.4 3.2-4.4 7.4-7 11.2-7 2.8 0 4.8 1 6 2.9 2 3.2 1.4 8.5-.2 12.1C41.5 40.9 30 44 23.6 44.7l-.6.1.1-.7z"/>
</svg>
